<svg width="17" height="17" viewBox="0 0 17 17" fill="none" xmlns="http://www.w3.org/2000/svg">
<path d="M8.5 0C13.1942 0.000109951 16.9999 3.80576 17 8.5C17 13.1943 13.1943 16.9999 8.5 17C3.80559 17 3.60795e-06 13.1944 0 8.5C0.000133071 3.8057 3.80567 0 8.5 0ZM8.5 1.32422C4.53734 1.32431 1.32533 4.53735 1.3252 8.5C1.32532 12.4627 4.53733 15.6747 8.5 15.6748C12.4627 15.6747 15.6757 12.4626 15.6758 8.5C15.6756 4.53736 12.4626 1.32433 8.5 1.32422ZM11.8477 5.12793C12.1426 4.79409 12.6495 4.76513 12.9795 5.06348C13.3094 5.36183 13.3378 5.87417 13.043 6.20801L7.74902 12.2012C7.67434 12.2857 7.54206 12.2825 7.47168 12.1943L4.15137 8.03027C3.87354 7.68173 3.92796 7.17073 4.27246 6.88965C4.61693 6.60874 5.12162 6.66331 5.39941 7.01172L7.53418 9.68945C7.60443 9.77759 7.73674 9.78149 7.81152 9.69727L11.8477 5.12793Z" fill="#4ADE80"/>
</svg>
